<svg xmlns="http://www.w3.org/2000/svg" viewBox="0 0 233.71 197.46"><defs><style>.cls-1{fill:#f7941d;}</style></defs><title>Asset 32</title><g id="Layer_2" data-name="Layer 2"><g id="Layer_1-2" data-name="Layer 1"><path class="cls-1" d="M169.71,2.45c15.07,6,23.81,25.17,35,44.6s24.56,39.33,28,62.23c3.62,22.9-2.41,48.81-18.38,65.09-16,16.12-41.73,22.6-65.24,23-23.35.6-44.59-4.67-60-15.52S64,154.63,49,140.92,13.77,115.91,5.19,99C-3.55,82.16-.54,59.71,9,40.72,18.59,21.74,34.57,6.37,53,2s39.17,2,60,1.66C133.86,3.36,154.8-3.57,169.71,2.45Z"/></g></g></svg>